<?xml version="1.0" standalone="no"?>
<!DOCTYPE svg PUBLIC "-//W3C//DTD SVG 20010904//EN"
 "http://www.w3.org/TR/2001/REC-SVG-20010904/DTD/svg10.dtd">
<svg version="1.0" xmlns="http://www.w3.org/2000/svg"
 width="600.000000pt" height="600.000000pt" viewBox="0 0 600.000000 600.000000"
 preserveAspectRatio="xMidYMid meet">
<metadata>
Created by potrace 1.11, written by Peter Selinger 2001-2013
</metadata>
<g transform="translate(0.000000,600.000000) scale(0.100000,-0.100000)"
fill="#000000" stroke="none">
<path d="M393 5332 l-22 -3 0 -1932 0 -1933 662 1 662 0 1 1925 c0 1059 -2
1930 -5 1935 -5 9 -1237 16 -1298 7z"/>
<path d="M1811 4630 c-13 -8 -9 -3860 3 -3861 6 0 302 -2 659 -2 568 -2 648 0
651 13 7 24 4 3850 -3 3851 -20 4 -1304 3 -1310 -1z"/>
<path d="M3255 4630 c-2 -3 -4 -588 -5 -1300 -1 -712 -2 -1581 -3 -1930 l-2
-634 640 1 c352 1 658 4 680 7 44 5 86 13 125 22 14 3 32 7 40 9 79 16 325
125 372 165 7 6 35 27 62 48 138 105 267 263 343 422 84 175 117 323 116 520
-1 161 -28 300 -88 442 -38 90 -123 238 -136 238 -5 0 -9 6 -9 13 0 14 -54 79
-121 146 -182 183 -389 291 -649 336 -19 3 -37 8 -39 11 -3 2 -5 339 -5 747
l-1 742 -658 1 c-362 0 -660 -2 -662 -6z m1334 -2255 c164 -55 289 -224 295
-400 6 -168 -112 -361 -256 -419 -18 -7 -42 -17 -53 -21 -35 -14 -48 -16 -121
-20 -87 -5 -141 7 -222 46 -111 54 -204 170 -233 291 -11 46 -8 163 5 223 4
16 21 55 37 86 70 131 194 217 339 236 25 3 46 6 48 8 5 5 120 -16 161 -30z"/>
</g>
</svg>
