<svg id="Layer_1" data-name="Layer 1" xmlns="http://www.w3.org/2000/svg" viewBox="0 0 315.18 257.98"><defs><style>.cls-1{fill:none;}.cls-2{fill:#e51c6c;}.cls-3{fill:#09f;}.cls-4{fill:#e61a6c;}</style></defs><title>moocoding logo</title><rect class="cls-1" width="259.82" height="257.98"/><polygon class="cls-2" points="140.51 184.66 140.51 176.13 141.98 185.48 140.51 184.66"/><rect class="cls-3" x="16.5" y="28.43" width="56.55" height="166.65"/><path class="cls-3" d="M57.86,216.49H.51V49.05H57.86ZM1.31,215.7H57.06V49.84H1.31Z" transform="translate(15.59 -21.01)"/><path class="cls-3" d="M157.91,185.54a4.2,4.2,0,0,1,.44-1.49c4.05-8.05,15-11.85,23.86-10.39V79.56H125.66V193.39c1.82-.17,4,1,4.31,2.87a39.78,39.78,0,0,0,.72,5.24,55.23,55.23,0,0,0,2.23,5.54c.83,2-.91,4.36-2.79,4.87a3.91,3.91,0,0,1-4.47-1.94v36.24h37.89a3.8,3.8,0,0,1,3.91-4.54c2.19,0,4.37-.06,6.56-.06a3.79,3.79,0,0,1,1.18.2c2.32,0,4.67.11,7,.23V216.26c-2.5,1.63-5.53,1.73-8.57,1.37-5.23-.63-11-3-13.56-7.43-4.26-3.34-7.14-8.71-6.86-13.86A17.36,17.36,0,0,1,157.91,185.54Z" transform="translate(15.59 -21.01)"/><path class="cls-3" d="M163.55,246.6H125.26v-38l.74,1.19a3.51,3.51,0,0,0,4,1.77,4,4,0,0,0,2.37-2.05,2.75,2.75,0,0,0,.15-2.28c-.2-.49-.42-1-.63-1.47a34.83,34.83,0,0,1-1.61-4.12,16.86,16.86,0,0,1-.53-3.39c-.05-.63-.11-1.28-.21-1.9-.26-1.68-2.26-2.69-3.88-2.54l-.43,0V79.16h57.35v95l-.47-.07c-8.31-1.37-19.35,2.06-23.43,10.18a3.68,3.68,0,0,0-.4,1.35v.13l-.09.1a17,17,0,0,0-4.59,10.55c-.26,4.82,2.37,10.13,6.71,13.53l.09.11c2.58,4.48,8.54,6.67,13.26,7.24,3.69.44,6.25,0,8.31-1.31l.62-.41v26.94l-.42,0c-2.31-.13-4.67-.21-7-.24h-.11A3.23,3.23,0,0,0,174,242h0l-3.28,0c-1.09,0-2.18,0-3.28,0a3.82,3.82,0,0,0-2.64,1.17,3.24,3.24,0,0,0-.95,2.38,4.29,4.29,0,0,0,.07.5l.09.46Zm-37.49-.79h37a1,1,0,0,1,0-.17,4,4,0,0,1,1.17-2.95,4.49,4.49,0,0,1,3.21-1.42l3.27,0,3.29,0a5,5,0,0,1,1.24.2c2.18,0,4.38.1,6.55.22V217c-2.76,1.49-6,1.33-8.22,1.06-4.89-.58-11.08-2.88-13.82-7.56-4.49-3.55-7.22-9.09-7-14.14a17.75,17.75,0,0,1,4.71-10.95,4.9,4.9,0,0,1,.46-1.5c4.17-8.29,15.28-11.89,23.82-10.67V80H126.06V193c1.91,0,4,1.22,4.3,3.21.1.65.16,1.32.21,2a16.47,16.47,0,0,0,.5,3.23,35.42,35.42,0,0,0,1.58,4c.22.49.43,1,.64,1.47a3.52,3.52,0,0,1-.18,2.93,4.81,4.81,0,0,1-2.87,2.48,4.14,4.14,0,0,1-4.18-1.17Z" transform="translate(15.59 -21.01)"/><rect class="cls-3" x="78.47" y="58.6" width="56.55" height="166.65"/><path class="cls-3" d="M119.84,246.65H62.48V79.21h57.36Zm-56.56-.79H119V80H63.28Z" transform="translate(15.59 -21.01)"/><path class="cls-2" d="M176.47,246.6a51.44,51.44,0,0,1-51.56-51.2c0-28.22,23.13-51.19,51.56-51.19S228,167.18,228,195.4A51.44,51.44,0,0,1,176.47,246.6Zm0-70.72a19.53,19.53,0,1,0,19.66,19.52A19.62,19.62,0,0,0,176.47,175.88Z" transform="translate(15.59 -21.01)"/><polygon class="cls-4" points="140.51 183.29 140.51 225.64 181.62 225.64 140.51 183.29"/><polygon class="cls-2" points="181.62 225.64 192.49 225.59 180.22 224.21 181.62 225.64"/><path class="cls-2" d="M248,144.24a51.19,51.19,0,1,1,0,102.38c-28.43,0-51.56-23-51.56-51.19S219.61,144.24,248,144.24ZM248,215a19.53,19.53,0,1,0-19.67-19.53A19.62,19.62,0,0,0,248,215Z" transform="translate(15.59 -21.01)"/></svg>