<svg id="Layer_1" data-name="Layer 1" xmlns="http://www.w3.org/2000/svg" viewBox="0 0 299.75 297.64"><defs><style>.cls-1{fill:none;}.cls-2{fill:#e51c6c;}.cls-3{fill:#09f;}.cls-4{fill:#e61a6c;}.cls-5{fill:#fff;}</style></defs><title>moocoding logo new 2</title><rect class="cls-1" width="299.75" height="297.64"/><polygon class="cls-2" points="162.1 213.05 162.1 203.21 163.8 213.99 162.1 213.05"/><rect class="cls-3" x="19.03" y="32.8" width="65.25" height="192.27"/><path class="cls-3" d="M84.86,226.71H18.7V33.53H84.86Zm-65.24-.91H83.94V34.44H19.62Z" transform="translate(-0.12 -1.18)"/><path class="cls-3" d="M200.3,191a4.9,4.9,0,0,1,.5-1.73c4.67-9.29,17.35-13.67,27.53-12V68.73H163.08V200.06c2.11-.2,4.63,1.11,5,3.31.31,2,.26,4.12.84,6a67.63,67.63,0,0,0,2.57,6.39c1,2.29-1.05,5-3.21,5.62a4.53,4.53,0,0,1-5.17-2.24V261h43.73a5,5,0,0,1-.1-.66,4.64,4.64,0,0,1,4.6-4.57c2.52,0,5-.06,7.57-.07a4.36,4.36,0,0,1,1.36.23c2.68,0,5.39.12,8.09.27V226.44c-2.88,1.88-6.38,2-9.89,1.58-6-.72-12.73-3.5-15.64-8.57-4.92-3.85-8.24-10-7.91-16A19.88,19.88,0,0,1,200.3,191Z" transform="translate(-0.12 -1.18)"/><path class="cls-3" d="M206.8,261.45H162.62V217.58l.85,1.37a4.08,4.08,0,0,0,4.66,2,4.62,4.62,0,0,0,2.73-2.37A3.18,3.18,0,0,0,171,216l-.73-1.69a42.13,42.13,0,0,1-1.86-4.75,19.28,19.28,0,0,1-.61-3.91c-.06-.73-.13-1.49-.24-2.2-.3-1.94-2.61-3.11-4.48-2.93l-.5.05V68.27h66.17V177.83l-.54-.09c-9.59-1.58-22.33,2.38-27,11.75a4.42,4.42,0,0,0-.45,1.56l0,.15-.11.12a19.52,19.52,0,0,0-5.29,12.16c-.3,5.57,2.74,11.7,7.74,15.61l.11.13c3,5.17,9.86,7.7,15.3,8.35,4.25.51,7.21,0,9.59-1.51l.71-.47v31.09l-.49,0c-2.66-.15-5.38-.24-8.07-.27l-.13,0a3.73,3.73,0,0,0-1.22-.21h0l-3.78,0c-1.26,0-2.52,0-3.79,0a4.39,4.39,0,0,0-3,1.35,3.76,3.76,0,0,0-1.1,2.74,5.4,5.4,0,0,0,.08.58l.1.54Zm-43.26-.91h42.73c0-.07,0-.13,0-.19a4.66,4.66,0,0,1,1.36-3.42,5.19,5.19,0,0,1,3.7-1.63l3.78,0,3.78,0a5.68,5.68,0,0,1,1.44.23c2.52,0,5.06.12,7.56.25V227.25c-3.19,1.72-6.9,1.54-9.49,1.23-5.64-.68-12.78-3.32-15.94-8.72-5.19-4.1-8.33-10.5-8-16.32a20.35,20.35,0,0,1,5.43-12.63,5.25,5.25,0,0,1,.53-1.73c4.81-9.57,17.62-13.73,27.48-12.32V69.18H163.54v130.4c2.21,0,4.61,1.42,5,3.72.11.74.18,1.51.25,2.26a17.79,17.79,0,0,0,.57,3.73,41.69,41.69,0,0,0,1.82,4.64c.25.57.5,1.14.74,1.71a4,4,0,0,1-.21,3.38,5.54,5.54,0,0,1-3.31,2.85,4.79,4.79,0,0,1-4.83-1.34Z" transform="translate(-0.12 -1.18)"/><rect class="cls-3" x="90.54" y="67.6" width="65.25" height="192.27"/><path class="cls-3" d="M156.37,261.51H90.2V68.33h66.17Zm-65.25-.92h64.33V69.24H91.12Z" transform="translate(-0.12 -1.18)"/><path class="cls-2" d="M221.7,261.44c-32.8,0-59.48-26.49-59.48-59.06s26.68-59.06,59.48-59.06,59.48,26.5,59.48,59.06S254.5,261.44,221.7,261.44Zm0-81.59a22.53,22.53,0,1,0,22.69,22.53A22.64,22.64,0,0,0,221.7,179.85Z" transform="translate(-0.12 -1.18)"/><polygon class="cls-4" points="162.1 211.47 162.1 260.33 209.54 260.33 162.1 211.47"/><polygon class="cls-2" points="209.54 260.33 222.08 260.27 207.93 258.67 209.54 260.33"/><polygon class="cls-5" points="281.99 212.61 281.99 202.78 280.29 213.55 281.99 212.61"/><path class="cls-5" d="M163.16,202c0-32.57,26.68-59.06,59.48-59.06s59.48,26.49,59.48,59.06S255.44,261,222.64,261,163.16,234.52,163.16,202ZM200,202a22.69,22.69,0,1,0,22.69-22.53A22.64,22.64,0,0,0,200,202Z" transform="translate(-0.12 -1.18)"/><polygon class="cls-5" points="281.99 211.04 281.99 259.89 234.56 259.89 281.99 211.04"/><polygon class="cls-5" points="234.56 259.89 222.01 259.84 236.16 258.24 234.56 259.89"/></svg>